<svg width="40" height="32" viewBox="0 0 40 32" fill="none" xmlns="http://www.w3.org/2000/svg">
<path fill-rule="evenodd" clip-rule="evenodd" d="M3.92407 2.50195L0.232691 5.0039V0L3.92407 2.50195ZM0.174683 7.33329H4.01159V31.49H0.174683V7.33329ZM6.8891 7.33329H11.6847L15.4052 21.7123V7.33329H18.9512V31.49H15.027L10.4351 13.8614V31.49H7.03386L6.8891 7.33329ZM27.671 7.33329H21.8578V31.49H27.671C31.5949 31.49 33.4842 29.3907 33.4842 25.5084V13.315C33.4842 9.43268 31.4786 7.33329 27.671 7.33329ZM29.6182 25.6809C29.6182 27.4064 28.8918 28.0391 27.671 28.0391H25.7238V10.7843H27.671C28.8918 10.7843 29.6182 11.417 29.6182 13.1425V25.6809ZM35.926 7.33329H39.7622V31.49H35.926V7.33329Z" fill="#FF4E4E"/>
</svg>
